<svg xmlns="http://www.w3.org/2000/svg" width="1280" height="720" viewBox="0 0 1280 720"><defs>
      <linearGradient id="bg" x1="0" y1="0" x2="1" y2="1">
        <stop offset="0" stop-color="#232629"/><stop offset="1" stop-color="#16181a"/>
      </linearGradient></defs><rect width="1280" height="720" fill="url(#bg)"/><text x="64" y="86" font-family="Inter" font-weight="700" font-size="54" fill="#ffffff">Swap Screen Contents</text><text x="66" y="126" font-family="Inter" font-weight="400" font-size="24" fill="#9aa2ad">One keystroke swaps the windows between your monitors — respecting per-screen virtual desktops.</text><text x="300" y="204" font-family="Inter" font-weight="600" font-size="26" fill="#9aa2ad" text-anchor="middle">BEFORE</text><rect x="169.0" y="230" width="262" height="130" rx="16" ry="16" fill="#0f1113" /><rect x="175.0" y="236" width="250" height="118" rx="11" ry="11" fill="#31363b" /><rect x="187.0" y="248" width="226" height="12" rx="4" ry="4" fill="#3b4045" /><rect x="187.0" y="266" width="107.0" height="76" rx="6" ry="6" fill="#eff0f1" /><path d="M193.0,266 h95.0 a6,6 0 0 1 6,6 v13 h-107.0 v-13 a6,6 0 0 1 6,-6 z" fill="#3daee9"/><circle cx="197.0" cy="275.5" r="2.6" fill="#eff0f1" opacity="0.9"/><circle cx="208.0" cy="275.5" r="2.6" fill="#eff0f1" opacity="0.9"/><circle cx="219.0" cy="275.5" r="2.6" fill="#eff0f1" opacity="0.9"/><rect x="306.0" y="266" width="107.0" height="76" rx="6" ry="6" fill="#eff0f1" /><path d="M312.0,266 h95.0 a6,6 0 0 1 6,6 v13 h-107.0 v-13 a6,6 0 0 1 6,-6 z" fill="#f67400"/><circle cx="316.0" cy="275.5" r="2.6" fill="#eff0f1" opacity="0.9"/><circle cx="327.0" cy="275.5" r="2.6" fill="#eff0f1" opacity="0.9"/><circle cx="338.0" cy="275.5" r="2.6" fill="#eff0f1" opacity="0.9"/><rect x="291" y="354" width="18" height="16" rx="3" ry="3" fill="#0f1113" /><rect x="254" y="368" width="92" height="12" rx="6" ry="6" fill="#0f1113" /><rect x="169.0" y="446" width="262" height="130" rx="16" ry="16" fill="#0f1113" /><rect x="175.0" y="452" width="250" height="118" rx="11" ry="11" fill="#31363b" /><rect x="187.0" y="464" width="107.0" height="94" rx="6" ry="6" fill="#eff0f1" /><path d="M193.0,464 h95.0 a6,6 0 0 1 6,6 v18 h-107.0 v-18 a6,6 0 0 1 6,-6 z" fill="#2ecc71"/><circle cx="197.0" cy="476.0" r="2.6" fill="#eff0f1" opacity="0.9"/><circle cx="208.0" cy="476.0" r="2.6" fill="#eff0f1" opacity="0.9"/><circle cx="219.0" cy="476.0" r="2.6" fill="#eff0f1" opacity="0.9"/><rect x="306.0" y="464" width="107.0" height="94" rx="6" ry="6" fill="#eff0f1" /><path d="M312.0,464 h95.0 a6,6 0 0 1 6,6 v18 h-107.0 v-18 a6,6 0 0 1 6,-6 z" fill="#3daee9"/><circle cx="316.0" cy="476.0" r="2.6" fill="#eff0f1" opacity="0.9"/><circle cx="327.0" cy="476.0" r="2.6" fill="#eff0f1" opacity="0.9"/><circle cx="338.0" cy="476.0" r="2.6" fill="#eff0f1" opacity="0.9"/><rect x="291" y="570" width="18" height="16" rx="3" ry="3" fill="#0f1113" /><rect x="254" y="584" width="92" height="12" rx="6" ry="6" fill="#0f1113" /><text x="980" y="204" font-family="Inter" font-weight="600" font-size="26" fill="#9aa2ad" text-anchor="middle">AFTER</text><rect x="849.0" y="230" width="262" height="130" rx="16" ry="16" fill="#0f1113" /><rect x="855.0" y="236" width="250" height="118" rx="11" ry="11" fill="#31363b" /><rect x="867.0" y="248" width="226" height="12" rx="4" ry="4" fill="#3b4045" /><rect x="867.0" y="266" width="107.0" height="76" rx="6" ry="6" fill="#eff0f1" /><path d="M873.0,266 h95.0 a6,6 0 0 1 6,6 v13 h-107.0 v-13 a6,6 0 0 1 6,-6 z" fill="#2ecc71"/><circle cx="877.0" cy="275.5" r="2.6" fill="#eff0f1" opacity="0.9"/><circle cx="888.0" cy="275.5" r="2.6" fill="#eff0f1" opacity="0.9"/><circle cx="899.0" cy="275.5" r="2.6" fill="#eff0f1" opacity="0.9"/><rect x="986.0" y="266" width="107.0" height="76" rx="6" ry="6" fill="#eff0f1" /><path d="M992.0,266 h95.0 a6,6 0 0 1 6,6 v13 h-107.0 v-13 a6,6 0 0 1 6,-6 z" fill="#3daee9"/><circle cx="996.0" cy="275.5" r="2.6" fill="#eff0f1" opacity="0.9"/><circle cx="1007.0" cy="275.5" r="2.6" fill="#eff0f1" opacity="0.9"/><circle cx="1018.0" cy="275.5" r="2.6" fill="#eff0f1" opacity="0.9"/><rect x="971" y="354" width="18" height="16" rx="3" ry="3" fill="#0f1113" /><rect x="934" y="368" width="92" height="12" rx="6" ry="6" fill="#0f1113" /><rect x="849.0" y="446" width="262" height="130" rx="16" ry="16" fill="#0f1113" /><rect x="855.0" y="452" width="250" height="118" rx="11" ry="11" fill="#31363b" /><rect x="867.0" y="464" width="107.0" height="94" rx="6" ry="6" fill="#eff0f1" /><path d="M873.0,464 h95.0 a6,6 0 0 1 6,6 v18 h-107.0 v-18 a6,6 0 0 1 6,-6 z" fill="#3daee9"/><circle cx="877.0" cy="476.0" r="2.6" fill="#eff0f1" opacity="0.9"/><circle cx="888.0" cy="476.0" r="2.6" fill="#eff0f1" opacity="0.9"/><circle cx="899.0" cy="476.0" r="2.6" fill="#eff0f1" opacity="0.9"/><rect x="986.0" y="464" width="107.0" height="94" rx="6" ry="6" fill="#eff0f1" /><path d="M992.0,464 h95.0 a6,6 0 0 1 6,6 v18 h-107.0 v-18 a6,6 0 0 1 6,-6 z" fill="#f67400"/><circle cx="996.0" cy="476.0" r="2.6" fill="#eff0f1" opacity="0.9"/><circle cx="1007.0" cy="476.0" r="2.6" fill="#eff0f1" opacity="0.9"/><circle cx="1018.0" cy="476.0" r="2.6" fill="#eff0f1" opacity="0.9"/><rect x="971" y="570" width="18" height="16" rx="3" ry="3" fill="#0f1113" /><rect x="934" y="584" width="92" height="12" rx="6" ry="6" fill="#0f1113" /><defs><marker id="ah3daee9" markerUnits="userSpaceOnUse" markerWidth="46.800000000000004" markerHeight="46.800000000000004" viewBox="0 0 10 10" refX="6.2" refY="5" orient="auto"><path d="M0.5,1 L9.3,5 L0.5,9 L3.4,5 Z" fill="#3daee9"/></marker></defs><path d="M628,475.0 C564,400 628,376.0 628,325.0" fill="none" stroke="#3daee9" stroke-width="18" stroke-linecap="butt" marker-end="url(#ah3daee9)"/><path d="M652,325.0 C716,400 652,424.0 652,475.0" fill="none" stroke="#3daee9" stroke-width="18" stroke-linecap="butt" marker-end="url(#ah3daee9)"/><text x="640" y="512" font-family="Inter" font-weight="600" font-size="22" fill="#ffffff" text-anchor="middle">one keystroke</text><text x="1216" y="686" font-family="Inter" font-weight="400" font-size="20" fill="#9aa2ad" text-anchor="end">github.com/cyrus-/swap-screen-contents</text></svg>