<svg xmlns="http://www.w3.org/2000/svg" width="512" height="512" viewBox="0 0 512 512"><defs>
      <linearGradient id="bg" x1="0" y1="0" x2="0" y2="1">
        <stop offset="0" stop-color="#232629"/><stop offset="1" stop-color="#16181a"/>
      </linearGradient></defs><rect x="0" y="0" width="512" height="512" rx="112" ry="112" fill="url(#bg)" /><rect x="100.0" y="86" width="312" height="116" rx="16" ry="16" fill="#0f1113" /><rect x="106.0" y="92" width="300" height="104" rx="11" ry="11" fill="#31363b" /><rect x="118.0" y="104" width="132.0" height="80" rx="6" ry="6" fill="#eff0f1" /><path d="M124.0,104 h120.0 a6,6 0 0 1 6,6 v14 h-132.0 v-14 a6,6 0 0 1 6,-6 z" fill="#3daee9"/><circle cx="240.0" cy="114.0" r="2.6" fill="#eff0f1" opacity="0.9"/><circle cx="229.0" cy="114.0" r="2.6" fill="#eff0f1" opacity="0.9"/><circle cx="218.0" cy="114.0" r="2.6" fill="#eff0f1" opacity="0.9"/><rect x="262.0" y="104" width="132.0" height="80" rx="6" ry="6" fill="#eff0f1" /><path d="M268.0,104 h120.0 a6,6 0 0 1 6,6 v14 h-132.0 v-14 a6,6 0 0 1 6,-6 z" fill="#3daee9"/><circle cx="384.0" cy="114.0" r="2.6" fill="#eff0f1" opacity="0.9"/><circle cx="373.0" cy="114.0" r="2.6" fill="#eff0f1" opacity="0.9"/><circle cx="362.0" cy="114.0" r="2.6" fill="#eff0f1" opacity="0.9"/><rect x="247" y="196" width="18" height="16" rx="3" ry="3" fill="#0f1113" /><rect x="210" y="210" width="92" height="12" rx="6" ry="6" fill="#0f1113" /><rect x="100.0" y="314" width="312" height="116" rx="16" ry="16" fill="#0f1113" /><rect x="106.0" y="320" width="300" height="104" rx="11" ry="11" fill="#31363b" /><rect x="118.0" y="332" width="132.0" height="80" rx="6" ry="6" fill="#eff0f1" /><path d="M124.0,332 h120.0 a6,6 0 0 1 6,6 v14 h-132.0 v-14 a6,6 0 0 1 6,-6 z" fill="#f67400"/><circle cx="240.0" cy="342.0" r="2.6" fill="#eff0f1" opacity="0.9"/><circle cx="229.0" cy="342.0" r="2.6" fill="#eff0f1" opacity="0.9"/><circle cx="218.0" cy="342.0" r="2.6" fill="#eff0f1" opacity="0.9"/><rect x="262.0" y="332" width="132.0" height="80" rx="6" ry="6" fill="#eff0f1" /><path d="M268.0,332 h120.0 a6,6 0 0 1 6,6 v14 h-132.0 v-14 a6,6 0 0 1 6,-6 z" fill="#f67400"/><circle cx="384.0" cy="342.0" r="2.6" fill="#eff0f1" opacity="0.9"/><circle cx="373.0" cy="342.0" r="2.6" fill="#eff0f1" opacity="0.9"/><circle cx="362.0" cy="342.0" r="2.6" fill="#eff0f1" opacity="0.9"/><rect x="247" y="424" width="18" height="16" rx="3" ry="3" fill="#0f1113" /><rect x="210" y="438" width="92" height="12" rx="6" ry="6" fill="#0f1113" /><defs><marker id="aheff0f1" viewBox="0 0 10 10" refX="6" refY="5" markerWidth="2.8" markerHeight="2.8" orient="auto"><path d="M0,0 L10,5 L0,10 Z" fill="#eff0f1"/></marker></defs><path d="M245,317.0 C207,268 245,252.32 245,219.0" fill="none" stroke="#eff0f1" stroke-width="11" stroke-linecap="round" marker-end="url(#aheff0f1)"/><path d="M267,219.0 C305,268 267,283.68 267,317.0" fill="none" stroke="#eff0f1" stroke-width="11" stroke-linecap="round" marker-end="url(#aheff0f1)"/></svg>