<svg xmlns="http://www.w3.org/2000/svg" width="512" height="512" viewBox="0 0 512 512"><defs>
      <linearGradient id="bg" x1="0" y1="0" x2="0" y2="1">
        <stop offset="0" stop-color="#232629"/><stop offset="1" stop-color="#16181a"/>
      </linearGradient></defs><rect x="0" y="0" width="512" height="512" rx="112" ry="112" fill="url(#bg)" /><rect x="100.0" y="86" width="312" height="116" rx="16" ry="16" fill="#0f1113" /><rect x="106.0" y="92" width="300" height="104" rx="11" ry="11" fill="#31363b" /><rect x="118.0" y="104" width="132.0" height="80" rx="6" ry="6" fill="#eff0f1" /><path d="M124.0,104 h120.0 a6,6 0 0 1 6,6 v14 h-132.0 v-14 a6,6 0 0 1 6,-6 z" fill="#3daee9"/><circle cx="128.0" cy="114.0" r="2.6" fill="#eff0f1" opacity="0.9"/><circle cx="139.0" cy="114.0" r="2.6" fill="#eff0f1" opacity="0.9"/><circle cx="150.0" cy="114.0" r="2.6" fill="#eff0f1" opacity="0.9"/><rect x="262.0" y="104" width="132.0" height="80" rx="6" ry="6" fill="#eff0f1" /><path d="M268.0,104 h120.0 a6,6 0 0 1 6,6 v14 h-132.0 v-14 a6,6 0 0 1 6,-6 z" fill="#f67400"/><circle cx="272.0" cy="114.0" r="2.6" fill="#eff0f1" opacity="0.9"/><circle cx="283.0" cy="114.0" r="2.6" fill="#eff0f1" opacity="0.9"/><circle cx="294.0" cy="114.0" r="2.6" fill="#eff0f1" opacity="0.9"/><rect x="247" y="196" width="18" height="16" rx="3" ry="3" fill="#0f1113" /><rect x="210" y="210" width="92" height="12" rx="6" ry="6" fill="#0f1113" /><rect x="100.0" y="314" width="312" height="116" rx="16" ry="16" fill="#0f1113" /><rect x="106.0" y="320" width="300" height="104" rx="11" ry="11" fill="#31363b" /><rect x="118.0" y="332" width="132.0" height="80" rx="6" ry="6" fill="#eff0f1" /><path d="M124.0,332 h120.0 a6,6 0 0 1 6,6 v14 h-132.0 v-14 a6,6 0 0 1 6,-6 z" fill="#f67400"/><circle cx="128.0" cy="342.0" r="2.6" fill="#eff0f1" opacity="0.9"/><circle cx="139.0" cy="342.0" r="2.6" fill="#eff0f1" opacity="0.9"/><circle cx="150.0" cy="342.0" r="2.6" fill="#eff0f1" opacity="0.9"/><rect x="262.0" y="332" width="132.0" height="80" rx="6" ry="6" fill="#eff0f1" /><path d="M268.0,332 h120.0 a6,6 0 0 1 6,6 v14 h-132.0 v-14 a6,6 0 0 1 6,-6 z" fill="#3daee9"/><circle cx="272.0" cy="342.0" r="2.6" fill="#eff0f1" opacity="0.9"/><circle cx="283.0" cy="342.0" r="2.6" fill="#eff0f1" opacity="0.9"/><circle cx="294.0" cy="342.0" r="2.6" fill="#eff0f1" opacity="0.9"/><rect x="247" y="424" width="18" height="16" rx="3" ry="3" fill="#0f1113" /><rect x="210" y="438" width="92" height="12" rx="6" ry="6" fill="#0f1113" /><defs><marker id="aheff0f1" markerUnits="userSpaceOnUse" markerWidth="39.0" markerHeight="39.0" viewBox="0 0 10 10" refX="6.2" refY="5" orient="auto"><path d="M0.5,1 L9.3,5 L0.5,9 L3.4,5 Z" fill="#eff0f1"/></marker></defs><path d="M247,316.0 C203,268 247,252.64 247,220.0" fill="none" stroke="#eff0f1" stroke-width="15" stroke-linecap="butt" marker-end="url(#aheff0f1)"/><path d="M265,220.0 C309,268 265,283.36 265,316.0" fill="none" stroke="#eff0f1" stroke-width="15" stroke-linecap="butt" marker-end="url(#aheff0f1)"/></svg>